<svg xmlns="http://www.w3.org/2000/svg" viewBox="0 0 128 128"><defs><style>.a{fill:#fff;}</style></defs><title>icons</title><rect class="a" x="13.25" y="20.15" width="101.5" height="54.85"/><rect class="a" x="58.78" y="70.25" width="10.45" height="33.4"/><rect class="a" x="34.75" y="97.75" width="58.5" height="10.1"/><path d="M35.83,40.16S34,36.93,31.28,36.93a2.37,2.37,0,0,0-2.64,2.5c0,1.66,1.56,2.2,2.79,2.64C35,43.34,42.49,45.64,42.49,53.48s-5.83,11-11.16,11c-7.83,0-11.75-6.95-11.75-6.95l6.27-3.72a7.44,7.44,0,0,0,5.38,2.84,2.49,2.49,0,0,0,2.64-2.4c0-1.86-2.15-2.5-4-3.13-3-1-9.35-3.28-9.35-11.7,0-5.44,4.89-10.13,10.77-10.13,8.52,0,11.16,7.83,11.16,7.83Z"/><path d="M64.66,64,58.35,51.52H56.59V64h-10V29.73H63.54s10.08,0,10.08,10.92c0,5.58-2.64,8.32-5.24,9.64l7,13.71ZM56.59,43.25h4.79s2.21,0,2.21-2.7A2.28,2.28,0,0,0,61.38,38H56.59Z"/><path d="M108.67,59.25A17.62,17.62,0,0,1,78.56,46.82a17.62,17.62,0,0,1,30.11-12.43l-7,7a7.36,7.36,0,0,0-5.49-2.55,7.88,7.88,0,0,0-7.58,8,7.7,7.7,0,0,0,7.58,8,7.33,7.33,0,0,0,5.58-2.5Z"/></svg>