<svg xmlns="http://www.w3.org/2000/svg" viewBox="0 0 128 128"><defs><style>.a{fill:#fff;}.b{fill:#c2c1c0;}</style></defs><title>icons</title><polygon class="a" points="34.55 106.65 28 33.16 100 33.16 93.44 106.64 63.96 114.81 34.55 106.65"/><polygon class="b" points="64 108.57 87.83 101.96 93.43 39.17 64 39.17 64 108.57"/><polygon points="64 66.42 52.07 66.42 51.25 57.2 64 57.2 64 48.18 63.97 48.18 41.4 48.18 41.61 50.6 43.83 75.44 64 75.44 64 66.42"/><polygon points="64 89.83 63.96 89.84 53.92 87.13 53.28 79.95 48.4 79.95 44.23 79.95 45.49 94.1 63.96 99.22 64 99.21 64 89.83"/><path class="a" d="M34.7,13.19h4.58v4.52h4.19V13.19h4.58v13.7H43.47V22.3H39.28v4.59H34.7V13.19Z"/><path class="a" d="M54.07,17.73H50V13.19H62.69v4.54h-4v9.16H54.07V17.73Z"/><path class="a" d="M64.7,13.19h4.77L72.41,18l2.94-4.81h4.77v13.7H75.56V20.1L72.41,25h-.08L69.18,20.1v6.79H64.7Z"/><path class="a" d="M82.4,13.19H87v9.17h6.44v4.53h-11Z"/><polygon points="63.97 66.42 63.97 75.44 75.07 75.44 74.02 87.13 63.97 89.84 63.97 99.22 82.45 94.1 82.58 92.58 84.7 68.84 84.92 66.42 82.49 66.42 63.97 66.42"/><polygon points="63.97 48.18 63.97 53.78 63.97 57.17 63.97 57.2 85.71 57.2 85.71 57.2 85.74 57.2 85.92 55.17 86.33 50.6 86.55 48.18 63.97 48.18"/></svg>